<svg width="19" height="21" viewBox="0 0 19 21" fill="none" xmlns="http://www.w3.org/2000/svg">
<path d="M14.2114 2.31196L9.40498 7.34435C9.22199 7.53594 9.039 7.91273 9.0024 8.18734L8.74012 10.1096C8.64253 10.8057 9.1122 11.2911 9.77705 11.1953L11.613 10.9207C11.8692 10.8824 12.2291 10.6908 12.4182 10.4992L17.2246 5.46679C18.0542 4.59825 18.4445 3.58922 17.2246 2.31196C16.0047 1.0347 15.041 1.44343 14.2114 2.31196Z" stroke="#030712" stroke-width="1.5" stroke-miterlimit="10" stroke-linecap="round" stroke-linejoin="round"/>
<path d="M7.95455 3.32129H6.40909C2.54545 3.32129 1 4.93916 1 8.98384V13.8375C1 17.8821 2.54545 19.5 6.40909 19.5H11.0455C14.9091 19.5 16.4545 17.8821 16.4545 13.8375V12.2196" stroke="#030712" stroke-width="1.5" stroke-linecap="round" stroke-linejoin="round"/>
</svg>
