<svg width="16" height="16" viewBox="0 0 16 16" fill="none" xmlns="http://www.w3.org/2000/svg">
<g clip-path="url(#clip0_491_3727)">
<path d="M1.33337 4.00016C1.33337 3.06674 1.33337 2.60003 1.51503 2.24351C1.67482 1.92991 1.92979 1.67494 2.24339 1.51515C2.59991 1.3335 3.06662 1.3335 4.00004 1.3335C4.93346 1.3335 5.40017 1.3335 5.75669 1.51515C6.07029 1.67494 6.32526 1.92991 6.48505 2.24351C6.66671 2.60003 6.66671 3.06674 6.66671 4.00016C6.66671 4.93358 6.66671 5.40029 6.48505 5.75681C6.32526 6.07042 6.07029 6.32538 5.75669 6.48517C5.40017 6.66683 4.93346 6.66683 4.00004 6.66683C3.06662 6.66683 2.59991 6.66683 2.24339 6.48517C1.92979 6.32538 1.67482 6.07042 1.51503 5.75681C1.33337 5.40029 1.33337 4.93358 1.33337 4.00016Z" stroke="#141B34"/>
<path d="M1.33337 12.0002C1.33337 11.0667 1.33337 10.6 1.51503 10.2435C1.67482 9.92991 1.92979 9.67494 2.24339 9.51515C2.59991 9.3335 3.06662 9.3335 4.00004 9.3335C4.93346 9.3335 5.40017 9.3335 5.75669 9.51515C6.07029 9.67494 6.32526 9.92991 6.48505 10.2435C6.66671 10.6 6.66671 11.0667 6.66671 12.0002C6.66671 12.9336 6.66671 13.4003 6.48505 13.7568C6.32526 14.0704 6.07029 14.3254 5.75669 14.4852C5.40017 14.6668 4.93346 14.6668 4.00004 14.6668C3.06662 14.6668 2.59991 14.6668 2.24339 14.4852C1.92979 14.3254 1.67482 14.0704 1.51503 13.7568C1.33337 13.4003 1.33337 12.9336 1.33337 12.0002Z" stroke="#141B34"/>
<path d="M9.33337 12.0002C9.33337 11.0667 9.33337 10.6 9.51503 10.2435C9.67482 9.92991 9.92979 9.67494 10.2434 9.51515C10.5999 9.3335 11.0666 9.3335 12 9.3335C12.9335 9.3335 13.4002 9.3335 13.7567 9.51515C14.0703 9.67494 14.3253 9.92991 14.4851 10.2435C14.6667 10.6 14.6667 11.0667 14.6667 12.0002C14.6667 12.9336 14.6667 13.4003 14.4851 13.7568C14.3253 14.0704 14.0703 14.3254 13.7567 14.4852C13.4002 14.6668 12.9335 14.6668 12 14.6668C11.0666 14.6668 10.5999 14.6668 10.2434 14.4852C9.92979 14.3254 9.67482 14.0704 9.51503 13.7568C9.33337 13.4003 9.33337 12.9336 9.33337 12.0002Z" stroke="#141B34"/>
<path d="M10.2319 6.57064L10.1273 6.0817H10.1273L10.2319 6.57064ZM9.42956 5.76835L9.91851 5.8729L9.42956 5.76835ZM10.0138 4.07464L9.66027 3.72109L10.0138 4.07464ZM11.9256 5.98638L12.2791 6.33993L11.9256 5.98638ZM14.5309 2.31836L14.9639 2.06836V2.06836L14.5309 2.31836ZM14.1308 3.78116L13.7772 3.4276L14.1308 3.78116ZM14.5309 3.33221L14.9639 3.58221L14.5309 3.33221ZM13.6818 1.46933L13.9318 1.03631V1.03631L13.6818 1.46933ZM12.219 1.86941L12.5726 2.22297L12.219 1.86941ZM12.668 1.46933L12.418 1.03631V1.03631L12.668 1.46933ZM13.7772 3.4276L11.572 5.63283L12.2791 6.33993L14.4843 4.13471L13.7772 3.4276ZM10.3674 4.42819L12.5726 2.22297L11.8655 1.51586L9.66027 3.72109L10.3674 4.42819ZM10.1273 6.0817C10.0103 6.1067 9.91689 6.12665 9.83658 6.14158C9.75555 6.15664 9.70243 6.16376 9.66642 6.16605C9.62944 6.16841 9.632 6.16402 9.65506 6.16997C9.68645 6.17807 9.72913 6.19829 9.76552 6.23468L9.05842 6.94179C9.27427 7.15764 9.54391 7.17587 9.72988 7.16404C9.90689 7.15278 10.1226 7.1053 10.3364 7.05959L10.1273 6.0817ZM8.94061 5.6638C8.89491 5.87756 8.84742 6.09332 8.83616 6.27032C8.82434 6.45629 8.84256 6.72593 9.05842 6.94179L9.76552 6.23468C9.80192 6.27107 9.82214 6.31376 9.83023 6.34514C9.83618 6.36821 9.8318 6.37077 9.83415 6.33379C9.83644 6.29777 9.84356 6.24466 9.85862 6.16362C9.87355 6.08331 9.8935 5.98986 9.91851 5.8729L8.94061 5.6638ZM13.7772 2.22297C14.0222 2.46796 14.0723 2.52414 14.0979 2.56836L14.9639 2.06836C14.8559 1.88139 14.6838 1.71533 14.4843 1.51586L13.7772 2.22297ZM14.4843 4.13471C14.6838 3.93524 14.8559 3.76918 14.9639 3.58221L14.0979 3.08221C14.0723 3.12643 14.0222 3.18261 13.7772 3.4276L14.4843 4.13471ZM14.0979 2.56836C14.1897 2.72735 14.1897 2.92323 14.0979 3.08221L14.9639 3.58221C15.2343 3.11382 15.2343 2.53675 14.9639 2.06836L14.0979 2.56836ZM14.4843 1.51586C14.2849 1.31639 14.1188 1.14426 13.9318 1.03631L13.4318 1.90234C13.4761 1.92787 13.5322 1.97797 13.7772 2.22297L14.4843 1.51586ZM12.5726 2.22297C12.8176 1.97797 12.8738 1.92787 12.918 1.90234L12.418 1.03631C12.231 1.14426 12.065 1.31639 11.8655 1.51586L12.5726 2.22297ZM13.9318 1.03631C13.4635 0.76589 12.8864 0.76589 12.418 1.03631L12.918 1.90234C13.077 1.81055 13.2729 1.81055 13.4318 1.90234L13.9318 1.03631ZM11.572 5.63283C11.4417 5.76318 11.2635 5.84747 11.0104 5.9121C10.8836 5.94447 10.7483 5.9695 10.5976 5.99554C10.4527 6.02057 10.2869 6.04757 10.1273 6.0817L10.3364 7.05959C10.4709 7.03082 10.6088 7.00842 10.7678 6.98094C10.921 6.95449 11.0897 6.92391 11.2578 6.88102C11.5943 6.7951 11.9689 6.65014 12.2791 6.33993L11.572 5.63283ZM9.91851 5.8729C9.95263 5.71332 9.97963 5.54748 10.0047 5.40263C10.0307 5.25188 10.0557 5.11661 10.0881 4.98981C10.1527 4.73667 10.237 4.55855 10.3674 4.42819L9.66027 3.72109C9.35006 4.0313 9.2051 4.40591 9.11919 4.74243C9.07629 4.91046 9.04572 5.07925 9.01926 5.23238C8.99178 5.39141 8.96938 5.52927 8.94061 5.6638L9.91851 5.8729Z" fill="#141B34"/>
</g>
<defs>
<clipPath id="clip0_491_3727">
<rect width="16" height="16" fill="white"/>
</clipPath>
</defs>
</svg>
