<svg width="24" height="25" viewBox="0 0 24 25" fill="none" xmlns="http://www.w3.org/2000/svg">
<path d="M15.5 19.65H6.5C3.16 19.65 1.25 17.74 1.25 14.4V9C1.25 5.66 3.16 3.75 6.5 3.75H9.2C9.44 3.75 9.67 3.87006 9.81 4.06006C9.95 4.25006 9.99 4.50999 9.91 4.73999C9.8 5.04999 9.75 5.39 9.75 5.75V9.65002C9.75 10.41 9.98 11.04 10.42 11.48C10.86 11.92 11.49 12.15 12.25 12.15C12.66 12.15 13 12.49 13 12.9V14.1L15.73 12.27C15.85 12.19 16 12.14 16.15 12.14H18.75C19.11 12.14 19.45 12.09 19.76 11.98C19.99 11.9 20.24 11.94 20.44 12.08C20.64 12.22 20.75 12.4499 20.75 12.6899V14.39C20.75 17.74 18.84 19.65 15.5 19.65ZM6.5 5.25C3.98 5.25 2.75 6.48 2.75 9V14.4C2.75 16.92 3.98 18.15 6.5 18.15H15.5C18.02 18.15 19.25 16.92 19.25 14.4V13.62C19.09 13.64 18.92 13.65 18.75 13.65H16.38L13.68 15.45C13.24 15.73 12.69 15.76 12.24 15.51C11.79 15.27 11.51 14.8 11.51 14.29V13.59C10.67 13.46 9.93 13.09 9.37 12.54C8.66 11.83 8.26 10.8 8.26 9.65002V5.75C8.26 5.58 8.27 5.41 8.28 5.25H6.5Z" fill="white"/>
<path d="M12.9 15.6801C12.67 15.6801 12.44 15.62 12.23 15.51C11.78 15.27 11.5 14.8 11.5 14.29V13.59C10.66 13.46 9.92 13.09 9.36 12.54C8.65 11.83 8.25 10.8 8.25 9.65002V5.75C8.25 5.22 8.33 4.72001 8.49 4.26001C9.05 2.69001 10.45 1.75 12.25 1.75H18.75C21.1 1.75 22.75 3.39 22.75 5.75V9.65002C22.75 11.45 21.82 12.85 20.25 13.41C19.77 13.57 19.27 13.65 18.75 13.65H16.38L13.68 15.45C13.44 15.61 13.17 15.6801 12.9 15.6801ZM12.25 3.25C11.1 3.25 10.25 3.8 9.91 4.75C9.81 5.05 9.75 5.39 9.75 5.75V9.65002C9.75 10.41 9.98 11.04 10.42 11.48C10.86 11.92 11.49 12.15 12.25 12.15C12.66 12.15 13 12.49 13 12.9V14.1L15.73 12.27C15.85 12.19 16 12.14 16.15 12.14H18.75C19.11 12.14 19.45 12.09 19.76 11.98C20.71 11.64 21.25 10.79 21.25 9.64001V5.73999C21.25 4.19999 20.29 3.23999 18.75 3.23999H12.25V3.25Z" fill="white"/>
<path d="M14.5999 23.25H7.3999C6.9899 23.25 6.6499 22.91 6.6499 22.5C6.6499 22.09 6.9899 21.75 7.3999 21.75H14.5999C15.0099 21.75 15.3499 22.09 15.3499 22.5C15.3499 22.91 15.0099 23.25 14.5999 23.25Z" fill="white"/>
<path d="M11 23.2499C10.59 23.2499 10.25 22.9099 10.25 22.4999V18.8999C10.25 18.4899 10.59 18.1499 11 18.1499C11.41 18.1499 11.75 18.4899 11.75 18.8999V22.4999C11.75 22.9099 11.41 23.2499 11 23.2499Z" fill="white"/>
<path d="M15.4399 8.5C15.0199 8.5 14.6899 8.16 14.6899 7.75C14.6899 7.34 15.0299 7 15.4399 7C15.8499 7 16.1899 7.34 16.1899 7.75C16.1899 8.16 15.8499 8.5 15.4399 8.5Z" fill="white"/>
<path d="M18.25 8.5C17.83 8.5 17.5 8.16 17.5 7.75C17.5 7.34 17.84 7 18.25 7C18.66 7 19 7.34 19 7.75C19 8.16 18.66 8.5 18.25 8.5Z" fill="white"/>
<path d="M12.6201 8.5C12.2001 8.5 11.8701 8.16 11.8701 7.75C11.8701 7.34 12.2101 7 12.6201 7C13.0301 7 13.3701 7.34 13.3701 7.75C13.3701 8.16 13.0401 8.5 12.6201 8.5Z" fill="white"/>
</svg>
