<svg width="16" height="13" viewBox="0 0 16 13" fill="none" xmlns="http://www.w3.org/2000/svg">
<path d="M9.5 6.5C9.5 7.32961 8.82961 8 8 8C7.17039 8 6.5 7.32961 6.5 6.5C6.5 5.67039 7.17039 5 8 5C8.82961 5 9.5 5.67039 9.5 6.5Z" stroke="#2E2E2E" stroke-linecap="round" stroke-linejoin="round"/>
<path d="M8.00002 10.8073C10.3166 10.8073 12.4756 9.72396 13.9785 7.84896C14.5691 7.11458 14.5691 5.88021 13.9785 5.14583C12.4756 3.27083 10.3166 2.1875 8.00002 2.1875C5.68346 2.1875 3.52439 3.27083 2.02158 5.14583C1.43096 5.88021 1.43096 7.11458 2.02158 7.84896C3.52439 9.72396 5.68346 10.8073 8.00002 10.8073Z" stroke="#2E2E2E" stroke-linecap="round" stroke-linejoin="round"/>
</svg>
