<svg width="24" height="23" viewBox="0 0 24 23" fill="none" xmlns="http://www.w3.org/2000/svg">
<path d="M9.101 22.7451V15.0695H6.627V11.5423H9.101V10.0226C9.101 6.09338 10.949 4.27258 14.959 4.27258C15.36 4.27258 15.914 4.31298 16.427 4.37165C16.8112 4.40969 17.1924 4.47235 17.568 4.55922V7.7574C17.3509 7.73792 17.133 7.72637 16.915 7.72278C16.6707 7.71668 16.4264 7.71379 16.182 7.71412C15.475 7.71412 14.923 7.80646 14.507 8.01133C14.2273 8.14629 13.9922 8.35345 13.828 8.60961C13.57 9.01359 13.454 9.56666 13.454 10.2948V11.5423H17.373L16.987 13.5651L16.7 15.0695H13.454V23C19.396 22.3094 24 17.4433 24 11.5423C24 5.16808 18.627 0 12 0C5.373 0 0 5.16808 0 11.5423C0 16.9557 3.874 21.4976 9.101 22.7451Z" fill="#474747"/>
</svg>
