<svg width="24" height="25" viewBox="0 0 24 25" fill="none" xmlns="http://www.w3.org/2000/svg">
<path d="M9.66667 0C15.0055 0 19.3333 4.36118 19.3333 9.74094C19.3333 12.0679 18.5236 14.2042 17.1727 15.8795L23.7071 22.4642C24.0976 22.8578 24.0976 23.4957 23.7071 23.8892C23.3521 24.247 22.7965 24.2795 22.4051 23.9868L22.2929 23.8892L15.7584 17.3046C14.0959 18.6659 11.9759 19.4819 9.66667 19.4819C4.32792 19.4819 0 15.1208 0 9.74094C0 4.36118 4.32792 0 9.66667 0ZM9.66667 2.01537C5.43248 2.01537 2 5.47422 2 9.74094C2 14.0076 5.43248 17.4665 9.66667 17.4665C13.9008 17.4665 17.3333 14.0076 17.3333 9.74094C17.3333 5.47422 13.9008 2.01537 9.66667 2.01537Z" fill="#212121"/>
</svg>
