<svg width="23" height="23" viewBox="0 0 23 23" fill="none" xmlns="http://www.w3.org/2000/svg">
<path d="M6.73719 0.0805159C5.51359 0.138207 4.67801 0.333515 3.94747 0.620439C3.19154 0.915126 2.55069 1.31044 1.91311 1.95031C1.27563 2.59019 0.882899 3.23141 0.590414 3.98868C0.307321 4.72066 0.115462 5.55699 0.0614118 6.78126C0.00736156 8.00553 -0.00461767 8.39911 0.00141986 11.5221C0.00736156 14.6449 0.0211616 15.0364 0.0804827 16.2633C0.138941 17.4866 0.333484 18.322 0.620506 19.0527C0.915674 19.8087 1.31051 20.4493 1.95068 21.087C2.59075 21.7248 3.2315 22.1166 3.9905 22.4095C4.72191 22.6922 5.55844 22.885 6.78252 22.9385C8.00661 22.9922 8.40058 23.0046 11.5227 22.9986C14.6447 22.9927 15.0378 22.9788 16.2643 22.9206C17.491 22.8624 18.3219 22.6665 19.0529 22.3808C19.8089 22.085 20.45 21.6908 21.0872 21.0505C21.7245 20.4102 22.117 19.7685 22.4093 19.0108C22.6927 18.2794 22.8852 17.443 22.9383 16.2198C22.9919 14.9922 23.0046 14.6004 22.9987 11.4779C22.9926 8.35541 22.9785 7.96393 22.9204 6.73756C22.8622 5.51118 22.6674 4.67839 22.3805 3.94719C22.085 3.19116 21.6905 2.55109 21.0507 1.91284C20.4109 1.2746 19.7686 0.882447 19.0113 0.590827C18.2793 0.30764 17.4434 0.114728 16.2193 0.0618284C14.9952 0.00892856 14.6012 -0.00477556 11.478 0.00135775C8.35477 0.0072994 7.96377 0.020716 6.73719 0.0805159ZM6.87155 20.8697C5.7503 20.8209 5.14147 20.6346 4.7357 20.4787C4.19846 20.2717 3.8157 20.0215 3.41138 19.621C3.00696 19.2206 2.75865 18.8365 2.54887 18.3004C2.39132 17.8946 2.20157 17.2865 2.14915 16.1652C2.09213 14.9534 2.08015 14.5895 2.07344 11.5192C2.06673 8.44904 2.07852 8.08555 2.13161 6.87326C2.17953 5.75297 2.36698 5.14347 2.52262 4.73791C2.72962 4.2 2.97898 3.81791 3.38033 3.41388C3.78168 3.00975 4.16463 2.76087 4.7012 2.55109C5.10658 2.39287 5.71465 2.20475 6.83542 2.15137C8.0482 2.09387 8.4116 2.08237 11.4814 2.07566C14.5513 2.06896 14.9156 2.08046 16.1289 2.13393C17.2492 2.18261 17.859 2.36824 18.2641 2.52493C18.8015 2.73193 19.1841 2.98052 19.5881 3.38264C19.9923 3.78456 20.2413 4.16617 20.4511 4.70389C20.6095 5.10801 20.7977 5.71588 20.8506 6.83742C20.9083 8.05018 20.9215 8.41387 20.9269 11.4834C20.9325 14.5529 20.9216 14.9175 20.8685 16.1294C20.8196 17.2506 20.6337 17.8597 20.4775 18.2659C20.2705 18.8029 20.021 19.1859 19.6194 19.5897C19.2178 19.9937 18.8353 20.2424 18.2985 20.4522C17.8937 20.6103 17.2849 20.7989 16.165 20.8522C14.9522 20.9093 14.5888 20.9212 11.5178 20.9279C8.44677 20.9347 8.08433 20.9222 6.87155 20.8697ZM16.2467 5.35363C16.2471 5.6266 16.3285 5.89329 16.4806 6.11999C16.6326 6.34669 16.8485 6.5232 17.1008 6.62721C17.3532 6.73123 17.6308 6.75806 17.8984 6.70432C18.166 6.65058 18.4117 6.51868 18.6043 6.3253C18.797 6.13193 18.928 5.88577 18.9807 5.61795C19.0334 5.35013 19.0056 5.07268 18.9006 4.82071C18.7956 4.56873 18.6183 4.35354 18.391 4.20235C18.1638 4.05116 17.8968 3.97077 17.6238 3.97134C17.2579 3.9721 16.9073 4.11814 16.649 4.37736C16.3908 4.63657 16.2461 4.98774 16.2467 5.35363ZM5.59524 11.5115C5.60166 14.7729 8.25041 17.4107 11.5111 17.4045C14.7719 17.3983 17.4115 14.7499 17.4054 11.4885C17.3992 8.22709 14.7499 5.58852 11.4886 5.59494C8.22741 5.60136 5.58911 8.25048 5.59524 11.5115ZM7.66669 11.5074C7.66519 10.7492 7.88855 10.0076 8.30851 9.37642C8.72848 8.74521 9.32619 8.2527 10.0261 7.96118C10.7259 7.66966 11.4965 7.59222 12.2404 7.73866C12.9843 7.88509 13.6681 8.24882 14.2052 8.78385C14.7424 9.31888 15.1088 10.0012 15.2582 10.7445C15.4076 11.4878 15.3332 12.2587 15.0445 12.9597C14.7558 13.6607 14.2656 14.2604 13.6361 14.6828C13.0065 15.1053 12.2659 15.3316 11.5077 15.3331C11.0043 15.3342 10.5056 15.236 10.0401 15.0443C9.57458 14.8526 9.15141 14.5711 8.79472 14.2159C8.43804 13.8606 8.15483 13.4385 7.96128 12.9738C7.76773 12.5091 7.66763 12.0108 7.66669 11.5074Z" fill="#474747"/>
</svg>
