<svg width="21" height="25" viewBox="0 0 21 25" fill="none" xmlns="http://www.w3.org/2000/svg">
<g clip-path="url(#clip0_284_1060)">
<path d="M10.5 12.5C13.8141 12.5 16.5 9.70215 16.5 6.25C16.5 2.79785 13.8141 0 10.5 0C7.18594 0 4.5 2.79785 4.5 6.25C4.5 9.70215 7.18594 12.5 10.5 12.5ZM14.7 14.0625H13.9172C12.8766 14.5605 11.7188 14.8438 10.5 14.8438C9.28125 14.8438 8.12813 14.5605 7.08281 14.0625H6.3C2.82187 14.0625 0 17.002 0 20.625V22.6562C0 23.9502 1.00781 25 2.25 25H18.75C19.9922 25 21 23.9502 21 22.6562V20.625C21 17.002 18.1781 14.0625 14.7 14.0625Z" fill="black"/>
</g>
<defs>
<clipPath id="clip0_284_1060">
<rect width="21" height="25" fill="white"/>
</clipPath>
</defs>
</svg>
