<?xml version="1.0" standalone="no"?>
<!DOCTYPE svg PUBLIC "-//W3C//DTD SVG 20010904//EN"
 "http://www.w3.org/TR/2001/REC-SVG-20010904/DTD/svg10.dtd">
<svg version="1.0" xmlns="http://www.w3.org/2000/svg"
 width="2161.000000pt" height="1049.000000pt" viewBox="0 0 2161.000000 1049.000000"
 preserveAspectRatio="xMidYMid meet">

<g transform="translate(0.000000,1049.000000) scale(0.100000,-0.100000)"
fill="#000000" stroke="none">
<path d="M10395 10370 c-810 -59 -1452 -697 -1524 -1515 -12 -130 -12 -2210 0
-2340 13 -146 35 -255 80 -388 188 -563 645 -968 1239 -1099 102 -22 118 -23
630 -23 508 0 529 1 633 23 337 71 600 213 843 456 259 259 400 532 464 894
18 101 19 171 17 1342 l-3 1235 -22 97 c-137 598 -538 1050 -1099 1237 -216
72 -310 83 -758 86 -214 2 -439 -1 -500 -5z m890 -131 c186 -21 354 -69 509
-145 158 -78 268 -156 395 -278 247 -239 402 -542 451 -880 11 -71 15 -2409 5
-2476 -54 -360 -192 -639 -439 -886 -248 -247 -524 -384 -886 -439 -48 -7
-926 -7 -992 1 -81 9 -223 43 -318 76 -213 75 -395 192 -566 362 -200 201
-329 420 -399 681 -50 188 -50 180 -50 1445 l0 1185 23 113 c13 63 37 155 54
205 190 568 698 975 1292 1037 102 10 826 10 921 -1z"/>
<path d="M10365 10164 c-139 -16 -213 -30 -295 -56 -446 -140 -761 -520 -820
-988 -13 -110 -12 -2641 1 -2755 49 -399 295 -747 654 -924 115 -57 198 -84
322 -106 125 -21 1054 -22 1188 0 244 39 461 151 641 330 177 177 285 385 336
650 20 104 19 2755 -1 2865 -29 161 -102 338 -194 475 -53 78 -185 214 -267
276 -126 95 -291 168 -475 211 -84 19 -125 21 -575 23 -267 1 -498 1 -515 -1z
m395 -410 l0 -287 -52 74 c-108 154 -283 314 -457 418 -46 28 -78 51 -70 52 8
0 50 6 94 13 44 7 171 14 283 15 l202 2 0 -287z m650 266 c54 -11 62 -15 46
-24 -150 -89 -242 -160 -356 -275 -69 -69 -144 -155 -168 -190 l-42 -64 0 288
0 287 228 -5 c125 -3 256 -10 292 -17z m-1354 -107 c202 -92 398 -250 528
-426 50 -68 116 -176 116 -190 0 -4 -288 -7 -641 -7 l-640 0 6 23 c4 12 31 72
60 132 92 189 240 348 420 450 44 25 83 45 86 45 4 0 33 -12 65 -27z m1652 3
c219 -112 409 -327 498 -563 l24 -63 -646 0 -646 0 28 48 c140 242 339 431
582 553 53 27 101 49 105 49 4 0 29 -11 55 -24z m-1888 -1196 l402 -505 -60
-27 c-142 -64 -357 -93 -523 -69 -46 7 -126 26 -177 43 l-93 29 4 462 c2 327
7 480 16 525 8 35 17 60 21 55 5 -4 189 -235 410 -513z m2441 448 c8 -43 14
-204 16 -515 l5 -452 -30 -15 c-17 -9 -70 -27 -119 -42 -73 -22 -112 -27 -228
-30 -132 -3 -176 1 -285 28 -47 11 -190 67 -190 74 0 2 123 158 273 346 150
189 331 416 402 506 70 89 132 162 136 162 4 0 13 -28 20 -62z m-1827 -51
c-112 -82 -194 -196 -241 -336 -20 -61 -26 -97 -27 -178 0 -57 -2 -103 -4
-103 -3 0 -505 630 -515 648 -7 9 80 12 419 12 l426 0 -58 -43z m1569 31 c-98
-126 -489 -618 -502 -630 -15 -17 -16 -13 -17 70 -2 226 -108 419 -304 554
-24 16 -3 17 404 17 341 1 426 -2 419 -11z m-1243 -268 l0 -230 -230 0 -230 0
0 25 c0 40 46 154 86 212 20 30 60 74 88 97 75 64 201 123 264 125 l22 1 0
-230z m213 215 c82 -25 169 -77 229 -138 66 -66 135 -194 144 -267 l6 -45
-223 2 c-123 2 -227 3 -231 3 -5 0 -8 104 -8 230 0 260 -7 242 83 215z m-213
-810 l0 -235 -27 6 c-124 27 -218 80 -298 166 -65 70 -125 184 -133 253 l-5
45 232 0 231 0 0 -235z m590 212 c0 -34 -35 -133 -67 -186 -72 -124 -220 -228
-360 -254 l-33 -6 0 234 0 235 230 0 230 0 0 -23z m-842 -642 c110 -137 199
-251 198 -253 -2 -1 -36 13 -77 31 -198 91 -430 151 -709 184 -86 10 -397 7
-482 -4 l-68 -9 0 123 c0 68 2 123 5 123 3 0 42 -11 87 -24 248 -72 527 -54
756 47 42 19 80 34 84 33 3 0 96 -113 206 -251z m931 215 c234 -101 523 -115
766 -39 33 10 63 19 68 19 4 0 7 -55 7 -123 l0 -124 -53 8 c-117 15 -327 20
-452 9 -283 -24 -508 -80 -767 -190 -55 -24 -68 -27 -57 -13 9 10 100 125 204
256 104 131 194 235 200 233 5 -3 43 -19 84 -36z m-744 -137 c74 -16 237 -13
285 5 87 33 86 29 -36 -123 -64 -80 -118 -145 -120 -145 -2 0 -49 57 -105 128
-56 70 -109 136 -118 146 -15 18 -15 19 4 12 11 -4 52 -15 90 -23z m-735 -248
c19 -3 74 -13 123 -21 917 -154 1661 -918 1792 -1837 21 -149 25 -138 -57
-194 -71 -49 -177 -108 -183 -101 -1 2 -5 52 -9 111 -35 571 -353 1117 -841
1441 -223 149 -499 260 -735 295 -36 5 -83 13 -105 16 -115 18 -329 13 -522
-11 l-54 -6 3 148 3 149 95 11 c94 11 422 10 490 -1z m2195 4 c139 -16 125 3
125 -165 0 -127 -2 -145 -15 -140 -24 9 -191 20 -300 20 -235 0 -460 -41 -667
-120 -66 -25 -68 -25 -91 -7 -79 61 -192 145 -218 160 -16 9 -29 20 -29 24 0
11 177 85 305 128 273 91 622 130 890 100z m-2208 -423 c11 -2 43 -8 70 -11
272 -38 587 -180 828 -374 392 -314 642 -810 656 -1296 3 -104 4 -102 -51
-115 -59 -14 -207 -28 -219 -20 -4 3 -11 66 -14 140 -30 661 -518 1231 -1173
1369 -102 22 -284 41 -338 35 -17 -1 -71 -5 -121 -9 -49 -3 -118 -12 -152 -19
l-63 -14 0 145 c0 112 3 145 14 149 7 3 60 11 117 19 96 12 390 13 446 1z
m2188 4 c61 -6 118 -13 128 -16 15 -5 17 -21 17 -145 0 -159 11 -146 -105
-128 -158 24 -415 8 -584 -36 l-53 -14 -27 32 c-14 17 -59 69 -100 115 -40 46
-72 85 -70 87 2 1 49 17 104 34 235 71 448 93 690 71z m-2195 -419 c578 -94
1036 -546 1135 -1118 13 -80 23 -269 13 -278 -6 -6 -38 -7 -208 -6 l-175 1 1
47 c5 187 -74 434 -190 597 -104 145 -294 293 -459 356 -139 54 -197 64 -377
64 -135 0 -178 -4 -237 -20 l-73 -20 0 172 c0 156 2 173 18 177 156 43 386 55
552 28z m2265 -4 l70 -13 3 -185 2 -185 -92 24 c-71 19 -128 26 -244 29 l-152
5 -12 27 c-12 27 -105 184 -140 238 l-21 32 42 11 c135 37 397 45 544 17z
m-56 -481 c86 -22 111 -34 111 -53 0 -41 -45 -176 -90 -268 -47 -97 -136 -230
-154 -230 -5 0 -17 45 -26 100 -21 122 -61 271 -105 387 l-32 87 41 3 c58 4
190 -9 255 -26z m-2515 -41 c-19 -36 -55 -114 -79 -173 -25 -59 -49 -116 -54
-127 -7 -17 -12 -12 -33 35 -31 69 -53 137 -72 218 l-14 63 23 9 c45 17 160
38 212 39 l52 1 -35 -65z m277 40 c32 -8 79 -24 104 -35 l46 -20 -26 -42 c-82
-135 -183 -370 -226 -525 l-22 -82 -58 50 c-71 61 -139 141 -139 163 0 40 112
308 181 434 45 81 46 81 140 57z m305 -147 c16 -11 59 -50 96 -86 l66 -65 -48
-91 c-65 -124 -114 -250 -146 -381 -15 -60 -28 -111 -29 -112 -7 -10 -209 73
-242 99 -34 27 121 438 237 626 23 38 28 39 66 10z m284 -355 c47 -113 70
-216 73 -321 l2 -94 -138 1 c-76 0 -142 3 -146 6 -10 6 11 103 46 210 28 88
112 275 123 275 4 0 22 -35 40 -77z"/>
<path d="M90 3085 l0 -885 155 0 155 0 0 395 0 395 340 0 340 0 0 135 0 135
-340 0 -340 0 0 220 0 220 560 0 560 0 0 135 0 135 -715 0 -715 0 0 -885z"/>
<path d="M2293 3663 c-79 -170 -212 -459 -298 -643 -86 -184 -164 -353 -174
-375 -10 -22 -60 -128 -110 -236 -50 -107 -91 -199 -91 -202 0 -4 71 -7 158
-7 l157 0 105 238 105 237 418 3 418 2 39 -82 c21 -46 70 -153 108 -238 l70
-155 166 -3 c91 -1 166 1 166 5 0 4 -36 84 -79 177 -149 320 -492 1060 -614
1324 l-121 262 -141 0 -141 0 -141 -307z m407 -343 c67 -151 132 -299 146
-329 13 -29 24 -57 24 -62 0 -5 -136 -9 -305 -9 -168 0 -305 3 -305 6 0 6 252
575 288 652 9 18 19 29 23 25 4 -5 62 -132 129 -283z"/>
<path d="M3653 3958 c3 -7 36 -78 73 -157 37 -79 219 -471 404 -870 l337 -726
142 0 143 0 90 195 c84 182 186 401 445 960 58 124 141 304 185 400 44 96 84
183 89 193 9 16 -1 17 -158 17 l-168 0 -81 -183 c-44 -100 -181 -410 -305
-689 -123 -279 -228 -507 -233 -505 -8 3 -60 117 -444 987 l-171 385 -177 3
c-140 2 -175 0 -171 -10z"/>
<path d="M6070 3086 l0 -886 150 0 150 0 0 340 0 340 314 0 314 0 100 -177
c55 -98 139 -249 188 -337 48 -87 93 -160 99 -162 6 -3 86 -3 178 -2 l167 3
-39 65 c-21 36 -78 133 -126 215 -119 203 -213 363 -236 402 l-19 31 77 38
c103 51 217 161 261 254 93 193 52 429 -101 582 -74 74 -155 120 -264 150 -75
21 -98 22 -645 26 l-568 3 0 -885z m1082 600 c83 -18 119 -37 168 -87 52 -54
74 -113 68 -186 -8 -104 -66 -184 -167 -232 l-56 -26 -397 -3 -398 -3 0 275 0
276 358 0 c269 0 373 -4 424 -14z"/>
<path d="M8320 3085 l0 -885 755 0 755 0 0 135 0 135 -600 0 -600 0 0 260 0
260 340 0 340 0 0 135 0 135 -340 0 -340 0 0 220 0 220 565 0 565 0 0 135 0
135 -720 0 -720 0 0 -885z"/>
<path d="M11460 3084 l1 -885 632 3 632 3 81 28 c171 57 293 172 346 325 32
94 32 260 0 347 -45 122 -123 207 -229 250 l-56 23 29 15 c36 19 104 90 132
137 63 107 69 262 14 373 -40 81 -129 167 -215 208 -122 57 -146 59 -784 59
l-583 0 0 -886z m1148 597 c97 -33 152 -108 152 -205 -1 -89 -47 -168 -125
-209 -39 -21 -52 -22 -452 -25 l-413 -3 0 231 0 230 393 0 c351 -1 398 -3 445
-19z m104 -723 c25 -15 64 -48 86 -73 130 -148 42 -369 -161 -404 -39 -7 -215
-11 -465 -11 l-402 0 0 260 0 261 448 -3 447 -3 47 -27z"/>
<path d="M13830 3360 c0 -516 2 -623 16 -688 43 -212 190 -378 409 -463 204
-79 486 -83 701 -9 153 53 311 185 373 310 67 138 65 110 68 818 l4 643 -153
-3 -153 -3 -2 -604 c-3 -659 -3 -660 -61 -751 -53 -84 -155 -148 -279 -176
-96 -21 -239 -15 -335 15 -83 26 -179 96 -219 159 -59 93 -58 88 -59 753 l-1
609 -155 0 -154 0 0 -610z"/>
<path d="M16160 3085 l0 -885 695 0 695 0 0 135 0 135 -540 0 -540 0 0 750 0
750 -155 0 -155 0 0 -885z"/>
<path d="M18100 3085 l0 -885 695 0 695 0 0 135 0 135 -540 0 -540 0 0 750 0
750 -155 0 -155 0 0 -885z"/>
<path d="M20040 3085 l0 -885 750 0 750 0 0 135 0 135 -595 0 -594 0 -3 256
c-2 141 -1 258 1 260 2 2 156 4 342 4 l337 0 -1 133 -2 132 -334 3 c-184 1
-337 6 -340 11 -4 5 -5 104 -3 220 l3 211 564 0 565 0 0 135 0 135 -720 0
-720 0 0 -885z"/>
<path d="M10283 2893 l2 -138 348 -3 347 -2 0 140 0 140 -349 0 -349 0 1 -137z"/>
<path d="M8083 1166 c-86 -21 -162 -65 -233 -135 -111 -109 -163 -237 -163
-401 1 -218 118 -406 309 -497 69 -33 87 -37 179 -41 124 -5 207 16 300 76
138 89 245 270 245 414 l0 38 -205 0 -205 0 0 -50 0 -50 140 0 c163 0 160 3
110 -98 -20 -38 -54 -82 -94 -119 -82 -77 -156 -106 -264 -105 -376 3 -549
487 -273 759 155 153 400 152 550 -1 l44 -45 49 25 49 25 -21 29 c-53 74 -167
148 -273 176 -63 17 -174 17 -244 0z"/>
<path d="M8970 630 l0 -530 320 1 320 1 0 54 0 54 -265 2 -265 3 -1 200 -1
200 221 3 222 2 -3 53 -3 52 -217 0 -218 0 0 165 0 165 265 -2 265 -1 0 54 0
54 -320 0 -320 0 0 -530z"/>
<path d="M9882 633 l3 -527 30 -2 c17 -2 40 -1 52 2 l22 4 -2 425 c-1 234 -1
425 -1 425 2 0 116 -176 357 -550 104 -162 195 -298 201 -302 15 -10 88 -10
103 0 10 6 12 126 10 527 l-2 520 -52 3 -53 3 -2 -427 -3 -427 -75 116 c-41
65 -165 257 -274 427 l-200 310 -58 0 -58 0 2 -527z"/>
<path d="M10930 630 l0 -530 318 3 317 2 3 53 3 52 -265 0 c-147 0 -266 3
-266 8 0 4 -1 95 -2 202 l-1 195 221 3 222 2 0 55 0 55 -219 0 -220 0 -3 28
c-2 15 -2 87 0 160 l3 132 252 2 c139 0 258 1 265 1 8 -1 12 16 12 53 l0 54
-320 0 -320 0 0 -530z"/>
<path d="M11792 1148 c3 -7 90 -245 193 -530 l187 -516 60 3 c32 1 63 6 68 11
7 8 380 1027 380 1040 0 3 -25 4 -56 2 l-56 -3 -166 -454 c-91 -250 -168 -450
-170 -445 -2 5 -76 209 -165 454 l-162 445 -59 3 c-45 2 -57 0 -54 -10z"/>
<path d="M12910 630 l0 -530 323 3 322 2 0 50 0 50 -267 3 -268 2 0 205 0 205
221 0 220 0 -3 53 -3 52 -215 2 -215 2 0 161 0 162 265 1 264 2 2 53 2 52
-324 0 -324 0 0 -530z"/>
</g>
</svg>
