<svg width="11" height="11" viewBox="0 0 11 11" fill="none" xmlns="http://www.w3.org/2000/svg">
<path d="M10.0833 3.58826C10.6174 3.39951 11 2.89019 11 2.2915C11 1.53211 10.3844 0.916504 9.62499 0.916504C9.01985 0.916504 8.50601 1.30742 8.32222 1.8505C8.27538 1.98894 8.24999 2.13725 8.24999 2.2915C8.24999 2.36959 8.2565 2.44615 8.26901 2.52067C8.35591 3.03879 8.73261 3.45865 9.2267 3.60794C9.23399 3.61013 9.24127 3.61226 9.24856 3.61434C9.36819 3.64832 9.49446 3.6665 9.62499 3.6665C9.78568 3.6665 9.93996 3.63893 10.0833 3.58826ZM2.40624 1.83317H7.61359C7.58014 1.98058 7.56249 2.13398 7.56249 2.2915C7.56249 2.36896 7.56675 2.44543 7.57509 2.52067H2.40624C1.98541 2.52067 1.64028 2.84476 1.60681 3.25697L1.60416 3.32275V3.51938L5.49999 5.56973L8.4748 4.00376C8.72505 4.17221 9.01426 4.28724 9.32611 4.3325L5.66009 6.26237C5.57419 6.30756 5.47391 6.31402 5.38394 6.28175L5.33989 6.26237L1.60416 4.29625V7.67692C1.60416 8.09776 1.92825 8.44289 2.34046 8.47635L2.40624 8.479H8.59374C9.01458 8.479 9.35971 8.15492 9.39316 7.74269L9.39582 7.67692V4.34142C9.47108 4.34973 9.54753 4.354 9.62499 4.354C9.78252 4.354 9.93592 4.33634 10.0833 4.3029V7.67692C10.0833 8.47121 9.46159 9.1203 8.67826 9.16417L8.59374 9.1665H2.40624C1.61193 9.1665 0.962834 8.54478 0.919012 7.76144L0.916656 7.67692V3.32275C0.916656 2.52845 1.53836 1.87935 2.32171 1.83553L2.40624 1.83317Z" fill="#212121"/>
</svg>
