<svg width="12" height="12" viewBox="0 0 12 12" fill="none" xmlns="http://www.w3.org/2000/svg">
<path d="M4.60169 1.99965L4.62521 1.99902L4.64809 1.99963C4.65931 2.00027 4.67055 2.00144 4.68178 2.00314L4.68982 2.00504C4.73252 2.0119 4.77496 2.02716 4.81541 2.05112L4.84134 2.06789L7.3765 3.85052L9.91 2.06956C10.1439 1.90517 10.4608 2.05293 10.4972 2.3241L10.5007 2.37634V7.6926C10.5007 7.79725 10.457 7.8963 10.3816 7.9667L10.3414 7.9994L7.59135 9.9326C7.4579 10.0264 7.2974 10.0185 7.17745 9.94415L4.62501 8.1485L2.09018 9.9309C1.85632 10.0953 1.53945 9.94755 1.50298 9.67635L1.49951 9.62415V4.30786C1.49951 4.2032 1.54319 4.10416 1.61857 4.03377L1.65885 4.00108L4.40885 2.06789C4.44085 2.04539 4.47441 2.02874 4.50859 2.01745L4.56982 2.00345L4.60169 1.99965ZM9.7507 3.09835L7.7507 4.5043V8.9038L9.7507 7.49785V3.09835ZM4.24951 3.09667L2.24951 4.50263V8.9021L4.24951 7.49615V3.09667ZM5.0007 3.09667V7.49615L7.0007 8.9021V4.50263L5.0007 3.09667Z" fill="#212121"/>
</svg>
