<?xml version="1.0" standalone="no"?>
<!DOCTYPE svg PUBLIC "-//W3C//DTD SVG 20010904//EN"
 "http://www.w3.org/TR/2001/REC-SVG-20010904/DTD/svg10.dtd">
<svg version="1.0" xmlns="http://www.w3.org/2000/svg"
 width="600.000000pt" height="600.000000pt" viewBox="0 0 600.000000 600.000000"
 preserveAspectRatio="xMidYMid meet">

<g transform="translate(0.000000,600.000000) scale(0.100000,-0.100000)"
fill="#ffffff" stroke="none">
<path d="M2570 5880 c-679 -54 -1258 -521 -1454 -1171 -73 -242 -71 -207 -71
-1509 0 -1244 0 -1244 50 -1442 145 -570 579 -1022 1135 -1184 196 -57 276
-64 764 -64 483 0 570 6 751 55 286 77 511 210 731 429 259 259 400 532 464
894 18 101 19 171 17 1342 l-3 1235 -22 97 c-137 597 -544 1055 -1099 1238
-225 73 -302 82 -763 85 -223 1 -448 -1 -500 -5z m935 -136 c325 -43 616 -182
851 -407 142 -135 235 -260 317 -423 71 -143 120 -296 148 -463 9 -58 13
-2419 4 -2481 -54 -360 -192 -639 -439 -886 -248 -247 -525 -384 -886 -439
-70 -10 -946 -6 -1021 5 -96 15 -211 44 -301 76 -464 167 -839 581 -958 1057
-48 193 -48 207 -46 1452 l1 1170 23 109 c143 677 667 1160 1342 1235 135 15
842 11 965 -5z"/>
<path d="M2530 5673 c-399 -31 -747 -247 -948 -588 -80 -136 -131 -288 -152
-455 -14 -112 -12 -2642 2 -2755 66 -528 456 -938 981 -1031 119 -21 1052 -20
1182 1 244 39 461 151 641 330 177 177 285 385 336 650 19 104 19 2743 -1
2860 -27 161 -100 340 -194 480 -53 78 -185 214 -267 276 -140 106 -341 188
-545 225 -41 7 -954 14 -1035 7z m410 -409 l0 -287 -52 74 c-108 154 -283 314
-457 418 -46 28 -78 51 -70 52 8 0 50 6 94 13 44 7 171 14 283 15 l202 2 0
-287z m614 271 c48 -8 90 -16 92 -18 3 -2 -26 -23 -64 -45 -170 -101 -374
-289 -469 -431 l-43 -64 0 287 0 287 198 -2 c108 0 237 -7 286 -14z m-1318
-112 c202 -92 398 -250 528 -426 50 -68 116 -176 116 -190 0 -4 -288 -7 -641
-7 l-640 0 6 23 c4 12 31 72 60 132 92 189 240 348 420 450 44 25 83 45 86 45
4 0 33 -12 65 -27z m1652 3 c219 -112 409 -327 498 -563 l24 -63 -646 0 -646
0 28 48 c140 242 339 431 582 553 53 27 101 49 105 49 4 0 29 -11 55 -24z
m-1888 -1196 l402 -505 -60 -27 c-142 -64 -357 -93 -523 -69 -46 7 -126 26
-177 43 l-93 29 4 462 c2 327 7 480 16 525 8 35 17 60 21 55 5 -4 189 -235
410 -513z m2441 448 c8 -43 14 -204 16 -515 l5 -452 -30 -15 c-17 -9 -70 -27
-119 -42 -73 -22 -112 -27 -228 -30 -132 -3 -176 1 -285 28 -47 11 -190 67
-190 74 0 2 123 158 273 346 150 189 331 416 402 506 70 89 132 162 136 162 4
0 13 -28 20 -62z m-1771 -11 c0 -2 -22 -18 -49 -35 -104 -68 -200 -201 -248
-341 -20 -60 -26 -98 -27 -178 0 -57 -2 -103 -4 -103 -3 0 -505 630 -515 648
-7 9 79 12 417 12 234 0 426 -1 426 -3z m1513 -9 c-65 -85 -482 -609 -497
-625 l-21 -22 -1 87 c-3 227 -108 419 -304 554 -24 16 -3 17 404 17 341 1 426
-2 419 -11z m-1243 -270 l0 -233 -32 2 c-18 1 -122 2 -230 2 l-198 1 0 23 c0
63 60 189 124 264 68 78 237 172 314 173 l22 0 0 -232z m213 217 c142 -43 261
-144 327 -278 22 -45 43 -102 46 -127 l6 -45 -231 0 -231 0 0 233 c0 262 -7
244 83 217z m-213 -810 l0 -235 -27 6 c-124 27 -218 80 -298 166 -65 70 -125
184 -133 253 l-5 45 232 0 231 0 0 -235z m590 210 c0 -13 -11 -53 -24 -89 -66
-182 -211 -307 -408 -350 l-28 -6 0 235 0 235 230 0 230 0 0 -25z m-841 -640
c109 -137 198 -251 196 -253 -1 -1 -35 13 -76 31 -164 75 -447 154 -619 172
-36 4 -74 9 -85 11 -48 10 -330 10 -438 0 l-117 -11 0 124 c0 123 0 123 23
117 187 -55 209 -59 382 -59 152 0 180 2 268 26 53 14 132 41 175 60 42 19 80
34 84 33 4 0 97 -113 207 -251z m930 215 c229 -99 504 -115 749 -44 45 13 84
24 87 24 3 0 5 -55 5 -123 l0 -124 -57 8 c-100 14 -343 18 -463 8 -239 -20
-476 -77 -698 -167 l-121 -50 32 42 c160 208 373 466 381 462 6 -3 44 -19 85
-36z m-739 -137 c78 -16 231 -13 281 5 86 32 85 29 -37 -123 -64 -80 -118
-145 -120 -145 -2 0 -49 57 -105 128 -56 70 -109 136 -118 146 -15 18 -15 19
4 12 11 -4 54 -14 95 -23z m-680 -258 c884 -132 1595 -777 1816 -1647 23 -92
53 -275 54 -324 0 -15 -21 -36 -72 -71 -71 -49 -177 -108 -183 -101 -1 2 -5
48 -8 103 -17 266 -99 545 -229 780 -293 528 -786 873 -1386 970 -168 27 -459
26 -599 -4 l-43 -9 0 153 0 153 98 9 c140 14 417 8 552 -12z m2135 14 c139
-16 125 2 125 -164 l0 -144 -32 5 c-307 46 -658 9 -940 -98 -76 -29 -78 -29
-101 -11 -79 61 -192 145 -218 160 -16 9 -29 20 -29 24 0 11 198 94 317 132
271 88 616 125 878 96z m-2200 -424 c17 -3 57 -10 90 -16 469 -81 899 -366
1168 -774 175 -266 280 -589 288 -890 3 -104 4 -102 -51 -115 -59 -14 -207
-28 -219 -20 -4 3 -11 66 -14 140 -30 659 -517 1230 -1168 1368 -128 28 -203
35 -345 34 -103 0 -302 -24 -326 -39 -5 -2 -8 61 -8 142 0 113 3 147 14 151
67 26 470 40 571 19z m2200 4 c138 -15 125 2 125 -159 0 -159 10 -147 -100
-129 -151 24 -421 8 -589 -36 l-53 -14 -27 32 c-14 17 -59 69 -100 115 -40 46
-72 84 -70 86 8 7 138 46 214 65 189 46 404 61 600 40z m-2215 -418 c577 -93
1036 -546 1135 -1120 15 -87 22 -267 11 -278 -4 -4 -270 -7 -361 -4 -17 1 -20
7 -19 48 4 128 -36 307 -96 432 -61 126 -119 208 -217 302 -137 132 -296 220
-481 266 -102 26 -372 24 -469 -3 l-73 -20 0 172 c0 156 2 173 18 177 153 43
388 54 552 28z m2265 -4 l70 -13 3 -186 2 -185 -87 24 c-70 20 -119 26 -243
29 -84 3 -155 6 -155 7 -1 1 -19 34 -40 72 -21 39 -57 99 -80 135 -22 36 -44
70 -48 77 -10 15 45 30 173 48 109 15 301 11 405 -8z m-125 -468 c87 -13 171
-40 178 -57 9 -25 -38 -175 -88 -277 -47 -98 -136 -230 -155 -230 -5 0 -15 36
-22 80 -17 111 -65 294 -106 403 l-34 91 41 3 c49 4 99 0 186 -13z m-2446 -54
c-28 -54 -72 -153 -133 -300 -6 -16 -12 -11 -33 36 -31 67 -53 134 -72 217
l-14 63 23 9 c45 17 160 38 212 39 l52 1 -35 -65z m277 40 c32 -8 79 -24 104
-35 l46 -20 -26 -42 c-82 -135 -183 -370 -226 -525 l-22 -82 -58 50 c-71 61
-139 141 -139 163 0 40 112 308 181 434 45 81 46 81 140 57z m305 -147 c16
-11 59 -50 96 -86 l66 -65 -48 -91 c-65 -124 -114 -250 -146 -381 -15 -60 -28
-111 -29 -112 -7 -10 -209 73 -242 99 -34 27 121 438 237 626 23 38 28 39 66
10z m284 -355 c47 -113 70 -216 73 -321 l2 -94 -139 2 c-77 0 -143 3 -146 5
-9 6 13 107 47 210 28 88 112 275 123 275 4 0 22 -35 40 -77z"/>
</g>
</svg>
