<svg width="12" height="12" viewBox="0 0 12 12" fill="none" xmlns="http://www.w3.org/2000/svg">
<path d="M3.52847 1.20922L4.11197 1.03334C4.77322 0.834019 5.4797 1.15613 5.7629 1.78605L6.21375 2.78891C6.4551 3.32582 6.3279 3.95683 5.8974 4.3583L5.15025 5.05505C5.1284 5.0754 5.11455 5.1029 5.11125 5.1326C5.08905 5.33115 5.2237 5.71785 5.5338 6.255C5.75935 6.64565 5.96345 6.91955 6.1372 7.07365C6.25825 7.181 6.3249 7.2042 6.35325 7.19575L7.35845 6.88845C7.92125 6.7164 8.53115 6.92155 8.8755 7.3988L9.51585 8.2863C9.9189 8.8449 9.8464 9.61555 9.3463 10.0892L8.9031 10.5089C8.4249 10.9618 7.7441 11.1305 7.10975 10.9535C5.7327 10.5691 4.49804 9.40705 3.3921 7.49155C2.28463 5.57335 1.89603 3.92111 2.25426 2.53521C2.41819 1.90097 2.90126 1.39828 3.52847 1.20922ZM3.74492 1.9273C3.36859 2.04074 3.07875 2.34236 2.98039 2.7229C2.67907 3.88866 3.0235 5.3531 4.04162 7.11655C5.0584 8.8776 6.15285 9.90775 7.31135 10.2311C7.692 10.3373 8.10045 10.2361 8.3874 9.96435L8.83055 9.54465C9.0579 9.32935 9.09085 8.97905 8.90765 8.72515L8.2673 7.83765C8.11075 7.62075 7.8335 7.52745 7.5777 7.6057L6.57005 7.91375C5.9852 8.0881 5.45435 7.61735 4.8843 6.63C4.50014 5.96465 4.3211 5.4503 4.36588 5.04935C4.38908 4.84161 4.48587 4.64906 4.63873 4.50651L5.3859 3.80979C5.5816 3.6273 5.6394 3.34048 5.5297 3.09643L5.07885 2.09357C4.95013 1.80724 4.62899 1.66082 4.32842 1.75142L3.74492 1.9273Z" fill="#212121"/>
</svg>
