<svg width="21" height="20" viewBox="0 0 21 20" fill="none" xmlns="http://www.w3.org/2000/svg">
<path d="M10.9167 18.3337H5.99241C4.7046 18.3337 3.68028 17.707 2.76057 16.8308C0.877824 15.0371 3.96902 13.6037 5.148 12.9016C6.89866 11.8592 8.94738 11.4769 10.9167 11.7546C11.6313 11.8554 12.3272 12.0431 13 12.3177" stroke="#141B34" stroke-width="1.5" stroke-linecap="round" stroke-linejoin="round"/>
<path d="M14.25 5.41699C14.25 7.48806 12.5711 9.16699 10.5 9.16699C8.42893 9.16699 6.75 7.48806 6.75 5.41699C6.75 3.34592 8.42893 1.66699 10.5 1.66699C12.5711 1.66699 14.25 3.34592 14.25 5.41699Z" stroke="#141B34" stroke-width="1.5"/>
<path d="M15.9167 18.3333L15.9167 12.5M13 15.4167H18.8333" stroke="#141B34" stroke-width="1.5" stroke-linecap="round"/>
</svg>
