<svg width="25" height="16" viewBox="0 0 25 16" fill="none" xmlns="http://www.w3.org/2000/svg">
<path d="M24.4771 2.49888C24.3358 2.01564 24.0573 1.57458 23.6694 1.21988C23.2815 0.865183 22.7977 0.609288 22.2667 0.477824C20.3177 1.12794e-07 12.5 0 12.5 0C12.5 0 4.68229 1.12794e-07 2.73229 0.477824C2.20147 0.60952 1.71801 0.865507 1.33029 1.22018C0.942564 1.57486 0.664158 2.01579 0.522917 2.49888C0 4.28149 0 8 0 8C0 8 0 11.7185 0.522917 13.5011C0.664152 13.9844 0.942683 14.4254 1.33062 14.7801C1.71855 15.1348 2.20227 15.3907 2.73333 15.5222C4.68229 16 12.5 16 12.5 16C12.5 16 20.3177 16 22.2677 15.5222C22.7988 15.3908 23.2826 15.1349 23.6705 14.7802C24.0585 14.4255 24.337 13.9844 24.4781 13.5011C25 11.7185 25 8 25 8C25 8 25 4.28149 24.4771 2.49888ZM9.94271 11.376V4.62401L16.4771 8L9.94271 11.376Z" fill="#474747"/>
</svg>
